<svg width="375px" height="79px" viewBox="0 0 375 79" version="1.1" xmlns="http://www.w3.org/2000/svg" xmlns:xlink="http://www.w3.org/1999/xlink">
    <!-- Generator: Sketch 61.2 (89653) - https://sketch.com -->
    <title>Elements/Logos/RateCity/Black</title>
    <desc>Created with Sketch.</desc>
    <g id="Elements/Logos/RateCity/Black" stroke="none" stroke-width="1" fill="none" fill-rule="evenodd">
        <g id="ratecitylogo" fill="#fff" fill-rule="nonzero">
            <g id="Group">
                <path d="M46.4691257,3.93727176 C41.2365149,-1.29533911 32.7236208,-1.29533911 27.4910099,3.93727176 L0.0326164524,31.3910057 L26.065205,57.4235943 L53.5235985,29.9652008 C56.221445,27.2673542 60.6200066,27.2673542 63.3178532,29.9652008 C66.0156998,32.6630474 66.0156998,37.061609 63.3178532,39.7594555 L35.8594597,67.217849 L40.45372,71.8121093 L67.9121135,44.3537158 C73.1447244,39.121105 73.1447244,30.6082109 67.9121135,25.3756 L46.4691257,3.93727176 Z" id="Path"></path>
                <path d="M60.717856,37.1641178 C61.9852381,35.8967357 61.9852381,33.8372397 60.717856,32.5698575 C59.4504738,31.3024754 57.3909778,31.3024754 56.1235957,32.5698575 L26.065205,62.6282482 L15.0408441,51.6038873 C13.7734619,50.3365051 11.7139659,50.3365051 10.4465838,51.6038873 C9.17920162,52.8712694 9.17920162,54.9307654 10.4465838,56.1981476 L26.065205,71.8121093 L30.6594653,67.217849 L30.6594653,67.217849 L60.717856,37.1641178 Z" id="Path"></path>
            </g>
            <g id="Group" transform="translate(87.602459, 6.915984)">
                <path d="M42.9468655,17.1358223 C42.9468655,20.516422 42.0353782,23.3894661 40.2217044,25.7549546 C38.4033802,28.1204431 35.9107413,29.7734912 32.7437878,30.7094424 L32.7437878,30.863106 C34.7155768,31.5382946 36.2967283,32.6698177 37.4965433,34.2576751 C38.6917078,35.8455326 39.9333768,38.4298753 41.2355016,42.0200164 L46.6067663,56.8369149 L32.1159776,56.8369149 L27.9119748,44.2830625 C26.9260803,41.3727666 25.7681193,39.3565136 24.4427423,38.2389599 C23.1173653,37.1214063 21.1595277,36.5626295 18.5599286,36.5626295 L13.4955933,36.5626295 L13.4955933,56.8415713 L0.0186017826,56.8415713 L0.0186017826,1.30381256 L22.5314092,1.30381256 C36.1432636,1.30381256 42.9468655,6.58425345 42.9468655,17.1358223 Z M13.5048942,26.3416703 L20.9037532,26.3416703 C26.7168102,26.3416703 29.6279892,23.8458005 29.6279892,18.854061 C29.6279892,14.123084 26.5400933,11.7575954 20.359651,11.7575954 L13.5048942,11.7575954 L13.5048942,26.3416703 L13.5048942,26.3416703 Z" id="Shape"></path>
                <path d="M78.504173,20.0647441 C81.4897591,22.7934375 82.9825521,26.7840353 82.9825521,32.0365373 L82.9825521,45.684661 C82.9825521,50.3644168 83.3685391,54.0802826 84.149814,56.8369149 L72.4678945,56.8369149 C72.1051598,55.3794387 71.9237924,53.6658564 71.9237924,51.6915117 L71.7703277,51.6915117 C68.7568389,55.7985213 64.4737784,57.8566825 58.9164959,57.8566825 C54.712493,57.8566825 51.3874244,56.7111901 48.9459404,54.4248616 C46.5044565,52.1385332 45.2813893,49.2282373 45.2813893,45.6939739 C45.2813893,42.2109318 46.4905051,39.4310171 48.9040864,37.3495735 C51.3176677,35.2681299 55.3542545,33.7920278 61.0138469,32.9072978 C64.2831102,32.3857728 67.4500637,32.0225679 70.5147073,31.8130266 L70.5147073,30.4067716 C70.5147073,28.2741068 70.0217601,26.7002187 69.0358656,25.689764 C68.0499712,24.6793093 66.6966915,24.1717536 64.9853275,24.1717536 C63.2181581,24.1717536 61.8555776,24.6513704 60.8929353,25.6152604 C59.9302931,26.5791504 59.4280449,27.9434971 59.37689,29.7083006 L46.9136957,29.7083006 C47.1183153,25.7083899 48.7320199,22.4162632 51.7455087,19.8458898 C54.7589975,17.27086 59.1722704,15.9854852 64.9853275,15.9854852 C71.012305,15.9670474 75.5185869,17.3313942 78.504173,20.0647441 Z M63.5111362,39.6778102 C61.5905021,40.0410151 60.2046693,40.6277308 59.3443369,41.4333007 C58.4886549,42.2388706 58.0608139,43.3424548 58.0608139,44.7487098 C58.0608139,46.1549648 58.5026062,47.258549 59.3861909,48.0641189 C60.2697756,48.8696888 61.516095,49.274802 63.1251492,49.274802 C64.1621986,49.274802 65.1620444,49.1071689 66.1246867,48.7672464 C67.0873289,48.4273238 67.9011569,47.9244247 68.580122,47.249236 C69.3613968,46.4203838 69.8775963,45.4937456 70.1380212,44.4786343 C70.3984462,43.4635231 70.5240082,42.075894 70.5240082,40.3064341 L70.5240082,38.9001792 C68.0313694,39.0026216 65.6921952,39.2633841 63.5111362,39.6778102 Z" id="Shape"></path>
                <path d="M110.09,46.8580923 L110.09,56.6087477 C109.206415,56.8695102 108.141463,57.074395 106.895144,57.2327151 C105.648824,57.3863787 104.532717,57.4655388 103.546823,57.4655388 C98.561545,57.4655388 94.9388479,56.4271452 92.6787313,54.3457016 C90.4186147,52.2642579 89.2885564,48.9069406 89.2885564,44.2830625 L89.2885564,26.653654 L83.1360168,26.653654 L83.1360168,17.2196388 L89.2885564,17.2196388 L89.2885564,6.53303224 L102.221446,6.53303224 L102.221446,17.2196388 L109.699362,17.2196388 L109.699362,26.653654 L102.221446,26.653654 L102.221446,41.3168889 C102.221446,43.4495537 102.612083,44.9722205 103.393358,45.8802328 C104.174633,46.7882452 105.444205,47.2445796 107.211374,47.2445796 C108.243773,47.2445796 109.206415,47.1141983 110.09,46.8580923 Z" id="Path"></path>
                <path d="M134.467636,48.1013707 C135.6628,47.2166407 136.365018,46.0758047 136.574288,44.6695498 L149.739699,44.6695498 C149.167695,47.1654195 148.000433,49.442435 146.233263,51.4959398 C144.466094,53.5541011 142.196677,55.1652409 139.41571,56.3340157 C136.634744,57.5027906 133.532896,58.0895062 130.105518,58.0895062 C125.794555,58.0895062 122.09745,57.1768374 119.004904,55.3608128 C115.917008,53.5401317 113.563883,51.0209795 111.954829,47.7940434 C110.345774,44.5717638 109.541247,40.8791804 109.541247,36.7209496 C109.541247,32.7676036 110.345774,29.2193709 111.954829,26.0762513 C113.563883,22.9331317 115.912358,20.4605443 119.004904,18.667802 C122.0928,16.8750598 125.7434,15.9763604 129.947403,15.9763604 C134.569946,15.9763604 138.513524,17.1078834 141.787437,19.3709295 C145.056701,21.6339756 147.395875,24.7398434 148.795659,28.6931894 C149.367664,30.2018868 149.772253,31.8130266 150.004775,33.5312653 C150.237297,35.2448475 150.353558,37.2983523 150.353558,39.6917796 L122.236964,39.6917796 C122.390429,43.1748218 123.171703,45.6706915 124.576138,47.1793889 C125.980573,48.6880863 127.770994,49.442435 129.952053,49.442435 C131.765727,49.4284656 133.272471,48.9861006 134.467636,48.1013707 Z M124.966775,26.3789221 C123.669301,27.6501393 122.836871,29.6431099 122.474137,32.348521 L137.350912,32.348521 C137.090487,29.6989876 136.28596,27.7199864 134.937331,26.4208303 C133.584051,25.1216742 131.923842,24.4697679 129.952053,24.4697679 C127.924459,24.4697679 126.26425,25.1077048 124.966775,26.3789221 Z" id="Shape"></path>
                <path d="M189.849793,2.66815928 C193.435287,4.40968035 196.239505,6.87761128 198.262449,10.0766085 C200.285393,13.2756058 201.378248,17.005441 201.531713,21.2661142 L187.589677,21.2661142 C187.278097,18.2487194 186.227096,15.9111698 184.436674,14.2441523 C182.646253,12.5817912 180.293127,11.7482825 177.386599,11.7482825 C173.698795,11.7482825 170.801568,13.2942317 168.699566,16.3861301 C166.592914,19.4780284 165.546564,23.7061063 165.546564,29.0610508 C165.546564,34.4159952 166.597565,38.6440731 168.699566,41.7359715 C170.806218,44.8278698 173.64764,46.373819 177.228484,46.373819 C180.135012,46.373819 182.51139,45.5170279 184.352966,43.7987892 C186.194543,42.085207 187.301349,39.6638408 187.664084,36.5440036 L201.764235,36.5440036 C201.243385,43.4076454 198.801901,48.7113687 194.439783,52.4551734 C190.077665,56.198978 184.339015,58.0708803 177.223833,58.0708803 C171.926976,58.0708803 167.346287,56.897449 163.477116,54.5598993 C159.607945,52.2176932 156.63166,48.8790017 154.557561,44.534512 C152.478812,40.1946788 151.441762,35.0306497 151.441762,29.0517378 C151.441762,23.0728259 152.492763,17.9087969 154.594765,13.5689636 C156.701417,9.22913037 159.696304,5.88578243 163.588727,3.54357629 C167.4858,1.20137015 172.07579,0.0325953141 177.377298,0.0325953141 C182.111452,0.0605341548 186.264299,0.931294689 189.849793,2.66815928 Z" id="Path"></path>
                <path d="M205.349728,11.5247718 L205.349728,1.30381256 L218.282618,1.30381256 L218.282618,11.5201153 L205.349728,11.5247718 L205.349728,11.5247718 Z M205.349728,56.8369149 L205.349728,17.2196388 L218.282618,17.2196388 L218.282618,56.8415713 L205.349728,56.8369149 L205.349728,56.8369149 Z" id="Shape"></path>
                <path d="M246.636385,46.8580923 L246.636385,56.6087477 C245.7528,56.8695102 244.687848,57.074395 243.441529,57.2327151 C242.195209,57.3863787 241.079102,57.4655388 240.093208,57.4655388 C235.10793,57.4655388 231.485233,56.4271452 229.225116,54.3457016 C226.965,52.2642579 225.834942,48.9115971 225.834942,44.2830625 L225.834942,26.653654 L219.682402,26.653654 L219.682402,17.2196388 L225.834942,17.2196388 L225.834942,6.53303224 L238.767831,6.53303224 L238.767831,17.2196388 L258.629884,17.2196388 L258.629884,26.653654 L238.767831,26.653654 L238.767831,41.3168889 C238.767831,43.4495537 239.153818,44.9722205 239.939743,45.8802328 C240.721018,46.7882452 241.99059,47.2445796 243.757759,47.2445796 C244.790158,47.2445796 245.7528,47.1141983 246.636385,46.8580923 Z" id="Path"></path>
                <path d="M269.725848,65.4560472 C268.088891,67.7190933 266.117102,69.3442025 263.80583,70.3313749 C261.494559,71.3185473 258.625234,71.8121335 255.197855,71.8121335 C252.965641,71.8121335 250.728777,71.5746533 248.501214,71.109006 L248.501214,61.283847 C249.747533,61.6982731 251.07291,61.9078144 252.472694,61.9078144 C254.291018,61.9078144 255.741957,61.45148 256.834812,60.5434677 C257.927667,59.6307989 258.471769,58.3735511 258.471769,56.7624113 C258.471769,56.0360014 258.341557,55.2164621 258.081132,54.3037933 C257.820707,53.395781 257.22545,51.6682293 256.29071,49.1164819 L244.683198,17.2149823 L258.625234,17.2149823 L262.44325,30.4719622 C264.108109,36.6091942 265.428836,42.1178023 266.41473,47.0070994 L266.568195,47.0070994 C267.656399,41.4472701 268.981776,35.9060667 270.539676,30.3974586 L274.204227,17.2149823 L287.369638,17.2149823 L274.204227,56.1337874 C272.855597,60.0871333 271.362804,63.1930011 269.725848,65.4560472 Z" id="Path"></path>
            </g>
        </g>
    </g>
</svg>